<mxfile host="drawio-plugin" modified="2023-10-22T20:19:32.399Z" agent="5.0 (Macintosh; Intel Mac OS X 10_16_0) AppleWebKit/537.36 (KHTML, like Gecko) Chrome/111.0.0.0 Safari/537.36" version="20.5.3" etag="WJwnoCqtxw3CuJV3hhEn" type="embed"><diagram id="mEuk7mh1xb8EKzWspZpV" name="Page-1"><mxGraphModel dx="966" dy="454" grid="1" gridSize="10" guides="1" tooltips="1" connect="1" arrows="1" fold="1" page="1" pageScale="1" pageWidth="850" pageHeight="1100" math="0" shadow="0"><root><mxCell id="0"/><mxCell id="1" parent="0"/><mxCell id="2" value="" style="ellipse;whiteSpace=wrap;html=1;aspect=fixed;" vertex="1" parent="1"><mxGeometry x="80" y="210" width="60" height="60" as="geometry"/></mxCell></root></mxGraphModel></diagram></mxfile>